<?xml version="1.0" encoding="UTF-8" standalone="no"?><!DOCTYPE svg PUBLIC "-//W3C//DTD SVG 1.1//EN" "http://www.w3.org/Graphics/SVG/1.1/DTD/svg11.dtd"><svg width="100%" height="100%" viewBox="0 0 200 46" version="1.1" xmlns="http://www.w3.org/2000/svg" xmlns:xlink="http://www.w3.org/1999/xlink" xml:space="preserve" xmlns:serif="http://www.serif.com/" style="fill-rule:evenodd;clip-rule:evenodd;stroke-linejoin:round;stroke-miterlimit:2;"><g><path d="M124.34,32.494c-5.217,5.245 -13.675,5.245 -18.893,-0c-5.217,-5.244 -5.217,-13.744 0,-18.988c5.218,-5.243 13.676,-5.243 18.893,0c5.218,5.244 5.218,13.744 0,18.988Zm-25.19,-25.316c-8.698,8.738 -8.698,22.906 0,31.644c8.695,8.74 22.793,8.74 31.488,0c8.696,-8.738 8.696,-22.906 0,-31.644c-8.695,-8.742 -22.793,-8.742 -31.488,-0Z" style="fill:#fff;fill-rule:nonzero;"/><rect x="141.615" y="0.622" width="8.905" height="44.755" style="fill:#fff;fill-rule:nonzero;"/><path d="M95.3,36.427l-22.267,-0l0,-35.803l-8.907,-0l-0.001,35.803l-22.264,-0l-0,8.949l53.439,0l-0,-8.949Z" style="fill:#fff;fill-rule:nonzero;"/><path d="M8.907,9.573l26.72,0l0.001,13.427c-0.003,5.846 -3.72,10.817 -8.908,12.66c-1.393,0.495 -2.892,0.767 -4.452,0.767l-13.361,-0l-0,-26.854Zm-8.907,35.805l22.268,-0c1.524,-0 3.013,-0.156 4.452,-0.449c3.291,-0.672 6.316,-2.072 8.908,-4.026c5.406,-4.083 8.905,-10.583 8.905,-17.903l-0,-22.376l-44.533,-0l0,44.754Z" style="fill:#fff;fill-rule:nonzero;"/><path d="M190.6,36.427l-26.72,-0l0,-13.428c0,-5.847 3.717,-10.814 8.905,-12.659c1.395,-0.495 2.892,-0.767 4.455,-0.767l13.36,0l-0,26.854Zm8.905,-35.803l-22.267,-0c-1.525,-0 -3.014,0.154 -4.453,0.447c-3.288,0.672 -6.317,2.072 -8.905,4.026c-5.408,4.083 -8.905,10.581 -8.905,17.902l-0,22.377l44.53,0l-0,-44.752Z" style="fill:#fff;fill-rule:nonzero;"/></g></svg>